<?xml version="1.0" encoding="utf-8"?>
<!-- Generator: Adobe Illustrator 22.0.0, SVG Export Plug-In . SVG Version: 6.00 Build 0)  -->
<svg version="1.1" id="Camada_1" xmlns="http://www.w3.org/2000/svg" xmlns:xlink="http://www.w3.org/1999/xlink" x="0px" y="0px"
	 viewBox="0 0 184.1 35" style="enable-background:new 0 0 184.1 35;" xml:space="preserve">
<style type="text/css">
	.st0{fill:#D580A6;}
	.st1{fill:#E6B3C8;}
	.st2{fill:#F3D9E2;}
	.st3{fill:#FAECF0;}
	.st4{fill:#D2E4EB;}
	.st5{fill:#3A90B0;}
	.st6{fill:#9FC6D6;}
	.st7{fill:#ECF3F6;}
	.st8{fill:#E3EBB6;}
	.st9{fill:#A8C938;}
	.st10{fill:#CDDD85;}
	.st11{fill:#F3F6DF;}
	.st12{fill:none;}
</style>
<g>
	<g id="XMLID_16_">
		<path id="XMLID_38_" class="st0" d="M18.6,4.7c0,1.6-1.3,2.8-2.8,2.8S13,6.2,13,4.7s1.3-2.8,2.8-2.8C17.3,1.8,18.6,3.1,18.6,4.7z"
			/>
		<path id="XMLID_37_" class="st1" d="M18.1,3.5c0,0.2,0.1,0.4,0.1,0.7c0,1.5-1.2,2.6-2.6,2.6c-1.1,0-2-0.6-2.4-1.6
			c0.3,1.1,1.3,2,2.5,2c1.5,0,2.6-1.2,2.6-2.6C18.3,4.2,18.2,3.9,18.1,3.5z"/>
		<g id="XMLID_32_">
			<path id="XMLID_36_" class="st2" d="M39.5,0.2c0,0-0.2,22.8-23,21.5c1-8.8,3.1-12,3.1-12l10.5-8.4"/>
			<path id="XMLID_35_" class="st0" d="M39.5,0.2c0,0-19.7,3.2-23,21.5C16.5,21.8,13.2-2.5,39.5,0.2z"/>
			<path id="XMLID_34_" class="st1" d="M17.5,13.1c0,0,3.1-11.9,15.8-12.3C33.2,0.8,22.2,1.6,17.5,13.1z"/>
			<path id="XMLID_33_" class="st3" d="M17.2,21.4c0,0,12.6-0.4,16.5-8.2C33.6,13.1,24.3,20.5,17.2,21.4z"/>
		</g>
		<g id="XMLID_27_">
			<path id="XMLID_31_" class="st2" d="M0.1,4.9c0,0-2.1,17.1,15.1,16.4c0.1-6.6-1.1-9.1-1.1-9.1l-7-6.4"/>
			<path id="XMLID_30_" class="st0" d="M0.1,4.9c0,0,14.5,2.5,15.1,16.4C15.3,21.4,20.2,3.1,0.1,4.9z"/>
			<path id="XMLID_29_" class="st1" d="M7.4,5.9c0,0,6.6,1.7,7.9,9.1C15.4,15,13.9,9.7,7.4,5.9z"/>
			<path id="XMLID_28_" class="st3" d="M14.6,20.9c0,0-8.2-0.3-10-5.5C4.6,15.5,10,20.3,14.6,20.9z"/>
		</g>
		<g id="XMLID_22_">
			<path id="XMLID_26_" class="st4" d="M15.2,22.7c0,0-13.5-1.8-14.7,11.8c5.3,0.1,7.4-0.8,7.4-0.8l5.9-5.5"/>
			<path id="XMLID_25_" class="st5" d="M15.2,22.7c0,0-3.6,11.4-14.7,11.8C0.5,34.5,14.5,38.6,15.2,22.7z"/>
			<path id="XMLID_24_" class="st6" d="M6,34.5c0,0,5.8-0.4,8.2-6.9C14.3,27.7,10.8,33.6,6,34.5z"/>
			<path id="XMLID_23_" class="st7" d="M14.3,22.9c0,0-6.6,0.3-8.6,4.5C5.8,27.4,10.6,23.4,14.3,22.9z"/>
		</g>
		<g id="XMLID_17_">
			<path id="XMLID_21_" class="st8" d="M24.6,33.3c0,0,2-10.2-8.3-10.5c-0.3,4,0.2,5.5,0.2,5.5l3.9,4.2"/>
			<path id="XMLID_20_" class="st9" d="M24.6,33.3c0,0-8.5-2.1-8.3-10.5C16.4,22.7,12.6,33.5,24.6,33.3z"/>
			<path id="XMLID_19_" class="st10" d="M16.2,27.3c0,0,0.5,4.6,5.9,5.8C22.1,33.1,17.2,31.1,16.2,27.3z"/>
			<path id="XMLID_18_" class="st11" d="M17.1,23.2c0,0,4.2,0.5,5,3.3C22.1,26.4,19.5,23.7,17.1,23.2z"/>
		</g>
	</g>
	<g>
		<path class="st12" d="M144.5,18.9c-3.2,0-3.9,5.1-3.9,6.8c0,2.1,0.9,2.8,1.9,2.8c3.5,0,4-6,4-7c0-0.5,0-1.5-0.6-2
			C145.7,19.2,145.2,18.9,144.5,18.9z"/>
		<path class="st12" d="M100.9,19.4c-3,0-3.8,4.9-3.8,6.5c0,2,0.8,2.7,1.8,2.7c3.3,0,3.8-5.7,3.8-6.7c0-0.5,0-1.4-0.6-2
			C102,19.6,101.6,19.4,100.9,19.4z"/>
		<path class="st12" d="M121.1,25.4c0,1.5,0.5,2.6,1.5,2.6c0.7,0,1.6-0.5,2.3-2c0.6-1.1,0.8-2.5,1.7-7c-0.4-0.1-0.8-0.2-1.2-0.2
			C122,18.9,121.1,24.1,121.1,25.4z"/>
		<path class="st12" d="M85.6,25.6c0,1.4,0.5,2.5,1.4,2.5c0.6,0,1.5-0.5,2.2-2c0.5-1.1,0.8-2.3,1.6-6.7c-0.4-0.1-0.7-0.2-1.1-0.2
			C86.5,19.4,85.6,24.3,85.6,25.6z"/>
		<path class="st12" d="M64.1,18.9c-3.2,0-3.9,5.1-3.9,6.8c0,2.1,0.9,2.8,1.9,2.8c3.5,0,4-5.9,4-7c0-0.6-0.1-1.5-0.6-2.1
			C65.2,19.2,64.8,18.9,64.1,18.9z"/>
		<path class="st12" d="M174.6,25.4c0,1.5,0.4,2.6,1.5,2.6c0.7,0,1.4-0.3,2.2-1.4c0.6-0.8,1-2.1,1.4-4.3l0.6-3.1
			c-0.4-0.1-0.9-0.3-1.4-0.3C175.5,18.9,174.6,23.7,174.6,25.4z"/>
		<path class="st5" d="M49,17.1c0.6-0.8,0.9-1.4,1.1-1.7c0.3-0.5-0.4-1.2-1.1-1.1h-0.5c-1-0.1-1.6,0.5-1.8,1.1c0,0.1,0,0.1,0,0.1
			c-0.1,0.2-0.1,0.4-0.2,0.5c-0.5,1.2-1.3,2.2-2.2,3.1c-0.9,0.9-2,2-3.2,2.9c0.1-0.8,0.2-1.1,0.3-1.9c0.1-0.8,0.3-1.5,0.4-2.2
			c0.2-1.1,0.4-1.9,0.5-2.5s-0.3-1.1-1.1-1.1h-0.4c-0.9,0-1.6,0.5-1.7,1.1c0,0.4-0.1,1.3-0.4,2.6l-1.5,8.1c0,0.9-0.3,1.7-0.5,2.3
			c-0.2,0.6,0.5,1.1,1.3,1.1h0.1c0.9,0,1.7-0.4,1.8-1.1c0.1-0.1,0.1-0.1,0.1-0.2v-0.1c0.1-0.1,0.1-0.2,0.1-0.3
			c0.1-0.2,0.1-0.3,0.1-0.5c0.1-0.4,0.2-0.8,0.2-1.1c0.1-0.4,0.1-0.8,0.2-1.2h-0.2l1.6-1.3c0.3,0.9,0.9,2,1.7,3.1
			c0.5,0.8,1.2,1.6,1.6,2.1c0.5,0.7,1.5,0.8,2.5,0.8c0.2,0,0.3,0,0.4,0c0.5,0,0.9-0.5,0.7-0.8c-0.9-0.8-2-2.2-2.7-3.4
			c-0.1-0.1-0.2-0.4-0.3-0.5c-0.1-0.1-0.1-0.1-0.2-0.2c-0.5-1-1.1-1.8-1.2-3.1l0,0C44.6,21.5,47.5,19,49,17.1z M38.7,24.2
			c-1.1,6.3-1.7,4.1-1.5,3.8c1.6-3.9,2.7-12.3,2.7-12.3C40.3,14,39.8,17.9,38.7,24.2z"/>
		<path class="st5" d="M58.1,18.4c0.2-0.6-0.4-1.2-1.3-1c-0.4,0.2-0.9,0.4-1.3,0.6c-0.5,0.3-0.9,0.8-1.3,1.3
			c0.1-0.1,0.1-0.2,0.1-0.3c0.1-0.2,0.1-0.4,0.1-0.4c0.1-0.5-0.7-1-1.5-0.8c-0.1,0-0.3,0.1-0.5,0.1c-0.8,0.1-1.1,0.7-1.1,1.2
			s-0.1,1.2-0.3,2.4l-1.1,5.9c-0.1,0.3-0.2,0.7-0.3,1c-0.2,0.6,0.5,1.1,1.3,1.1H51c0.8,0.1,1.6-0.5,1.6-1.1c0.1-1.4,0.6-4.3,0.9-5.4
			c0.6-2.2,1.7-3.1,2.6-3.3C57.1,19.4,57.9,19,58.1,18.4z M50.4,28.4c1.1-4.2,1.6-10.1,1.6-10.1C52.4,23.9,50.4,28.5,50.4,28.4z"/>
		<path class="st5" d="M64.5,17.4c-5,0-7.3,4.5-7.3,8c0,2,0.8,2.9,1.4,3.4c0.9,0.8,2.1,1.1,3.4,1.1c5,0,7.2-5,7.2-8.4
			c0-0.7-0.1-1.9-1.2-3.1C67.3,17.7,66,17.4,64.5,17.4z M58.1,23.4c1-3.8,3.2-4.8,3.2-4.8c-3.8,3.7-3.2,7.2-2.3,9.2
			c0.6,1.2,1.4,1.6,1.4,1.6C59.4,29.2,57.1,27.2,58.1,23.4z M62.1,28.5c-1,0-1.9-0.7-1.9-2.8c0-1.7,0.8-6.8,3.9-6.8
			c0.7,0,1.1,0.3,1.4,0.5c0.5,0.5,0.6,1.5,0.6,2.1C66.1,22.5,65.6,28.5,62.1,28.5z"/>
		<path class="st5" d="M78.7,17.8h-0.2c-0.9-0.1-1.5,0.7-1.7,1.3c-0.1,0-0.1,0.1-0.1,0.1c-0.1,0.1-0.1,0.2-0.1,0.2
			c-0.7,1.3-2,3-3.2,4.1l0.8-4.7c0.3-1.7,0.5-2.7,0.8-3.9c0.2-0.6-0.6-1.1-1.4-0.9c-0.3,0.1-0.5,0.1-0.7,0.1c-0.8,0.1-1,0.7-1,1.2
			c0,0.3,0,0.7-0.1,1.1c-0.3,1.4-0.5,2.8-0.8,4.2c-0.3,1.4-0.5,2.8-0.8,4.2c0.1,0,0,0.1,0,0.2c-0.1,0.1-0.1,0.2-0.1,0.2
			c-0.2,0.9-0.4,2.3-0.6,3v0.1c0,0.1,0,0.1,0,0.1c-0.1,0.1-0.1,0.2-0.1,0.2c-0.1,0.5,0.7,0.9,1.4,0.9c0.9,0,1.7-0.5,1.7-1.1
			c0-0.1,0-0.1,0-0.2c0.1-0.3,0.1-0.5,0.1-0.7v-0.2c0-0.4,0-0.8,0.1-0.9l1.7-1.4c0.7,2.2,1.4,2.9,2.1,3.8c0.5,0.7,1.4,1,2.4,0.9h0.2
			c0.5,0,0.7-0.6,0.4-0.9c-0.7-0.7-1.5-1.4-2.3-3.8c-0.2-0.7-0.3-1-0.5-2h-0.1c1.1-1.1,2.4-2.9,3.2-4.1
			C80.2,18.4,79.4,17.8,78.7,17.8z M71.4,23.9c-0.9,5.5-1.4,3.7-1.3,3.3c1.4-3.4,2.1-10.7,2.1-10.7C72.7,15.1,72.3,18.4,71.4,23.9z"
			/>
		<path class="st9" d="M94.5,15.6c0.1-0.6-0.7-0.9-1.6-0.8c-0.1,0-0.3,0.1-0.3,0.1c-0.8,0.1-1.2,0.7-1.2,1.2s-0.1,1-0.3,2
			C90.8,18,90.4,18,89.9,18c-2,0-3.9,1-5.1,2.4c-1.9,2.4-2.2,5.3-2.2,5.9c0,2.4,1.6,3.6,3.6,3.6c1.6,0,2.5-1,3.4-2.2
			c-0.1,0.6-0.1,0.5-0.1,0.7c-0.1,0.7,0.7,1.2,1.4,1.2c0.8,0,1.4-0.5,1.4-1.1c0-0.9,0.2-2.3,0.4-3.4c0-0.1,0.1-0.3,0.1-0.5l1.2-6.3
			c0.1-0.3,0.1-0.5,0.1-0.7c0-0.1,0.1-0.3,0.1-0.5c0.1-0.3,0.1-0.5,0.1-0.7C94.3,16.1,94.4,15.9,94.5,15.6z M83.3,24.9
			c0.4-4,3.5-5.7,3.5-5.7c-6.8,6.3-0.7,10.4-0.7,10.4S82.9,28.8,83.3,24.9z M89.3,26.2c-0.7,1.5-1.6,2-2.2,2c-0.9,0-1.4-1.1-1.4-2.5
			c0-1.3,0.8-6.3,4.2-6.3c0.4,0,0.7,0.1,1.1,0.2C90,23.9,89.8,25.1,89.3,26.2z"/>
		<path class="st9" d="M104.6,19c-0.7-0.7-1.9-1.1-3.3-1.1c-4.8,0-7,4.4-7,7.8c0,1.8,0.8,2.8,1.3,3.3c0.8,0.8,2,1.1,3.3,1.1
			c4.8,0,7-4.8,7-8.1C105.8,21.3,105.8,20.1,104.6,19z M94.7,24.9c0.4-4,3.5-5.7,3.5-5.7c-6.7,6.2-0.5,10.4-0.5,10.4
			S94.4,28.8,94.7,24.9z M99,28.6c-1,0-1.8-0.7-1.8-2.7c0-1.6,0.8-6.5,3.8-6.5c0.7,0,1,0.3,1.3,0.5c0.6,0.5,0.6,1.4,0.6,2
			C102.8,22.8,102.3,28.6,99,28.6z"/>
		<path class="st0" d="M117.6,16.9c0.5-0.7,0.9-1.2,1.2-1.6c0.3-0.4-0.1-1.1-0.8-1.1c-1.2,0.1-2.5,0.1-4,0.1c-1,0-2.6,0-4.8-0.1
			c-0.9,0-1.8,0.6-1.9,1.3c-0.1,0.6,0.7,0.9,1.4,0.7c0.8-0.3,1.8-0.3,3.4-0.3h2.5c-1.1,1.8-3.4,5-4,5.8c-2.1,3.1-4,5.5-5.2,7
			c-0.3,0.4,0.2,1,0.8,1c1.2-0.1,2.5-0.1,3.7-0.1c2,0,3.8,0,5.2,0.1c1,0,1.9-0.7,2.2-1.4c0,0,0.1-0.1,0.1-0.2h-0.1
			c0.1-0.1,0.1-0.1,0.1-0.1v-0.1c0.2-0.4-0.5-0.7-1.1-0.5c-0.4,0.1-0.8,0.3-1.2,0.3c-0.8,0.1-2,0.2-2.7,0.2c-2,0-2.2-0.1-2.2-0.3
			c0-0.2,0.1-0.4,0.4-0.9C112.1,24.5,114.3,21.3,117.6,16.9z M110.1,24.2c-3.9,6.1-3.5,3.7-3.2,3.3c3.4-3.4,8-11.7,8-11.7
			C116.2,14.2,114,18.1,110.1,24.2z"/>
		<path class="st0" d="M128.8,14c-0.1,0-0.3,0.1-0.3,0.1c-0.8,0.1-1.2,0.7-1.2,1.3c0,0.5-0.1,1.1-0.3,2.2c-0.3-0.1-0.7-0.1-1.2-0.1
			c-2.2,0-4.1,1-5.3,2.5c-2,2.5-2.3,5.6-2.3,6.2c0,2.5,1.7,3.8,3.7,3.8c1.6,0,2.7-1,3.5-2.2c-0.1,0.7-0.1,0.6-0.1,0.8
			c-0.1,0.7,0.7,1.2,1.5,1.2s1.4-0.6,1.4-1.2c0-0.9,0.3-2.3,0.5-3.5c0-0.2,0.1-0.4,0.1-0.6l1.2-6.7c0.1-0.3,0.1-0.5,0.1-0.7
			s0.1-0.4,0.1-0.5c0.1-0.3,0.1-0.6,0.1-0.8c0.1-0.4,0.1-0.7,0.2-0.9C130.5,14.2,129.6,13.9,128.8,14z M118.7,24.7
			c0.4-4,3.5-5.7,3.5-5.7c-6.8,6.3-0.7,10.4-0.7,10.4S118.3,28.7,118.7,24.7z M125,26c-0.8,1.6-1.7,2-2.3,2c-1,0-1.5-1.1-1.5-2.6
			c0-1.4,0.8-6.5,4.4-6.6c0.4,0,0.8,0.1,1.2,0.2C125.8,23.6,125.6,24.9,125,26z"/>
		<path class="st0" d="M138.7,18.5c0.2-0.6-0.5-1.2-1.3-1c-0.5,0.1-0.9,0.3-1.3,0.6c-0.5,0.3-1,0.8-1.3,1.2c0-0.1,0.1-0.1,0.1-0.3
			c0.1-0.2,0.1-0.4,0.1-0.5c0.1-0.6-0.7-1-1.5-0.8c-0.2,0-0.4,0.1-0.6,0.1c-0.8,0.1-1.2,0.7-1.1,1.2c0,0.5-0.1,1.2-0.3,2.4l-1,6
			c-0.1,0.3-0.1,0.7-0.3,1c-0.2,0.6,0.5,1.1,1.3,1.1h0.2c0.8,0,1.6-0.5,1.6-1.2c0.1-1.4,0.7-4.3,1-5.5c0.6-2.2,1.7-3.1,2.5-3.3
			C137.7,19.5,138.5,19.1,138.7,18.5z M130.9,28.8c1.1-4.2,1.6-10.2,1.6-10.2C132.7,24.3,130.8,29,130.9,28.8z"/>
		<path class="st0" d="M144.9,17.4c-5,0-7.4,4.5-7.4,8.1c0,2,0.8,2.9,1.4,3.5c0.8,0.8,2.1,1.1,3.4,1.1c5.1,0,7.3-5,7.3-8.4
			c0-0.7,0-1.9-1.2-3.1C147.7,17.8,146.4,17.4,144.9,17.4z M138.1,24.5c0.4-4.1,3.5-5.9,3.5-5.9c-6.8,6.5-0.7,10.8-0.7,10.8
			S137.7,28.6,138.1,24.5z M142.5,28.5c-1,0-1.9-0.7-1.9-2.8c0-1.8,0.7-6.8,3.9-6.8c0.7,0,1.1,0.3,1.4,0.6c0.6,0.5,0.6,1.5,0.6,2
			C146.5,22.5,146,28.5,142.5,28.5z"/>
		<path class="st0" d="M165,17.6c-0.9,0-1.8,0.5-2,1.2s-0.5,1.6-0.8,2.3c-0.4,0.9-0.8,2-1.2,2.9c-0.3,0.7-0.6,1.4-0.8,2.1
			c-0.1-0.7,0-0.3,0-0.8c0-0.3,0-0.6,0-0.9c-0.1-2.8-0.3-5.5-1.3-5.5s-1.8,0.4-2.1,1.1c-0.1,0.1-0.1,0.1-0.1,0.1
			c-0.2,0.5-0.3,0.8-0.6,1.4l-1.4,3.3c-0.1,0.1-0.1,0.3-0.2,0.5c-0.1,0.1-0.1,0.3-0.2,0.5v-0.1c0-0.8,0-1.7,0-2.6
			c-0.1-0.8-0.1-1.9-0.1-2.6s0.1-1.2,0.1-1.6c0.1-0.7-0.7-1.2-1.6-1.2h-0.2c-0.8-0.1-1.5,0.6-1.4,1.2c0.1,0.5,0.2,1.2,0.3,2.5
			l0.3,4.2c0,0.3,0,0.6,0,1c0,0.7-0.1,1.3-0.1,1.8c0,0.7,0.8,1.2,1.6,1.2h0.2c1,0.1,1.9-0.3,2.2-1c0.2-0.7,0.5-1.3,1-2.5
			c0.3-0.7,0.5-1.4,0.8-2c0.1,1.7,0.1,2.7,0.1,4.4c0,0.7,0.7,1.2,1.7,1.2h0.2c1,0.1,1.9-0.5,2.2-1.2c0-0.1,0-0.2,0-0.2l0.1-0.1
			c0-0.1,0-0.2,0-0.2c0.8-2,2.6-5.9,3.5-7.9l0.1-0.1c0.1-0.1,0.1-0.3,0.2-0.4c0.1-0.3,0.3-0.7,0.5-0.9
			C166.2,18.2,165.7,17.7,165,17.6z M152,28.3c0.4-3.1-0.5-9.3-0.5-9.3c0-1.2,0.5,1.6,0.8,6.3C152.8,29.9,151.9,28.6,152,28.3z"/>
		<path class="st0" d="M169.9,17.7c-0.3,0.1-0.5,0.1-0.8,0.1c-0.8,0.1-1,0.7-1,1.2c0,0.8-0.2,2.2-0.7,5.2l-0.4,2.2
			c-0.1,0.9-0.3,1.6-0.4,2c0,0.1,0,0.1,0,0.1c-0.1,0.6,0.5,1.2,1.2,1.2h0.2c0.8,0,1.6-0.5,1.7-1.1c0.1-0.8,0.3-2.1,0.7-4.3l0.6-3.7
			c0.1-0.7,0.3-1.2,0.3-1.6c0-0.1,0.1-0.3,0.1-0.3C171.3,18.1,170.7,17.6,169.9,17.7z M168.2,25.3c-0.6,4.7-1.1,3.1-1,2.9
			c1-2.9,1.4-9.1,1.4-9.1C168.9,17.8,168.7,20.6,168.2,25.3z"/>
		<path class="st0" d="M170.6,13.5c-1.4,0-2,1.1-2,1.8c0,0.8,0.7,1.2,1.5,1.2c1.3,0,2-1.2,2-1.9C172.1,13.8,171.3,13.5,170.6,13.5z"
			/>
		<path class="st0" d="M182,17.8l-0.3,0.1c-0.7-0.3-1.3-0.5-2.3-0.5c-2,0-3.3,0.8-3.8,1.2c-3.3,2.6-3.8,6.6-3.8,7.6
			c0,2.5,1.8,3.7,3.7,3.7c1.7,0,2.9-1.4,3.8-2.6c-0.1,0.5-0.2,1-0.2,1.4c-0.1,0.5,0.6,1,1.4,1s1.5-0.5,1.5-1c0-0.7,0.1-2.2,0.5-4
			l0.4-2.2c0.4-2,0.7-3.2,0.8-3.9C183.5,18.1,182.8,17.5,182,17.8z M172.1,24.9c0.4-4,3.5-5.7,3.5-5.7c-6.8,6.3-0.7,10.4-0.7,10.4
			S171.7,28.8,172.1,24.9z M179.7,22.3c-0.4,2.2-0.8,3.5-1.4,4.3c-0.8,1.1-1.6,1.4-2.2,1.4c-1.1,0-1.5-1.1-1.5-2.6
			c0-1.8,0.8-6.5,4.2-6.5c0.5,0,1,0.1,1.4,0.3L179.7,22.3z"/>
	</g>
</g>
</svg>
